<?xml version="1.0" encoding="UTF-8" standalone="no"?>
<!-- Created with Inkscape (http://www.inkscape.org/) -->

<svg
   width="11in"
   height="8.5in"
   viewBox="0 0 279.4 215.9"
   version="1.1"
   id="svg5"
   xml:space="preserve"
   inkscape:version="1.2.2 (b0a84865, 2022-12-01)"
   sodipodi:docname="maggots-must-not-enter-k40.svg"
   xmlns:inkscape="http://www.inkscape.org/namespaces/inkscape"
   xmlns:sodipodi="http://sodipodi.sourceforge.net/DTD/sodipodi-0.dtd"
   xmlns="http://www.w3.org/2000/svg"
   xmlns:svg="http://www.w3.org/2000/svg"><sodipodi:namedview
     id="namedview7"
     pagecolor="#505050"
     bordercolor="#ffffff"
     borderopacity="1"
     inkscape:showpageshadow="0"
     inkscape:pageopacity="0"
     inkscape:pagecheckerboard="1"
     inkscape:deskcolor="#505050"
     inkscape:document-units="in"
     showgrid="false"
     inkscape:zoom="0.93678536"
     inkscape:cx="462.75275"
     inkscape:cy="211.89486"
     inkscape:window-width="1440"
     inkscape:window-height="773"
     inkscape:window-x="0"
     inkscape:window-y="25"
     inkscape:window-maximized="0"
     inkscape:current-layer="layer2"
     showguides="false"><sodipodi:guide
       position="0,215.9"
       orientation="0,1056"
       id="guide3235"
       inkscape:locked="false" /><sodipodi:guide
       position="279.4,215.9"
       orientation="816,0"
       id="guide3237"
       inkscape:locked="false" /><sodipodi:guide
       position="279.4,0"
       orientation="0,-1056"
       id="guide3239"
       inkscape:locked="false" /><sodipodi:guide
       position="0,0"
       orientation="-816,0"
       id="guide3241"
       inkscape:locked="false" /><sodipodi:guide
       position="4.7625,211.1375"
       orientation="0,1"
       id="guide852"
       inkscape:locked="false"
       inkscape:label=""
       inkscape:color="rgb(0,134,229)" /><sodipodi:guide
       position="4.7625,211.1375"
       orientation="1,0"
       id="guide856"
       inkscape:locked="false" /><sodipodi:guide
       position="274.6375,4.7625"
       orientation="-1,0"
       id="guide858"
       inkscape:locked="false"
       inkscape:label=""
       inkscape:color="rgb(0,134,229)" /><sodipodi:guide
       position="274.6375,4.7625"
       orientation="0,-1"
       id="guide860"
       inkscape:locked="false" /></sodipodi:namedview><defs
     id="defs2"><rect
       x="18"
       y="18"
       width="1020"
       height="157.22894"
       id="rect4891" /><rect
       x="18"
       y="183.50747"
       width="1020"
       height="509.12975"
       id="rect4824" /><rect
       x="18"
       y="694.33207"
       width="1020"
       height="84.900169"
       id="rect3366" /></defs><g
     inkscape:groupmode="layer"
     id="layer2"
     inkscape:label="Background"><rect
       style="fill:#ffffff;fill-opacity:1;stroke:#ff0000;stroke-width:0.1;stroke-dasharray:none;stroke-opacity:1;paint-order:markers stroke fill"
       id="rect862"
       width="269.875"
       height="206.375"
       x="4.7624998"
       y="4.7624998"
       ry="9.5249996" /></g><g
     aria-label="CHOKEY AWAITS ANY SQUIT WHO PASSES THIS SIGN."
     transform="scale(0.26458333)"
     id="text3364"
     style="font-size:37.3333px;line-height:2.5;text-align:center;letter-spacing:1px;word-spacing:1px;text-anchor:middle;white-space:pre;shape-inside:url(#rect3366);display:inline;fill:#000000;stroke:#ff0000;stroke-width:0.37795276;paint-order:markers stroke fill;stroke-opacity:1;stroke-dasharray:none;fill-opacity:1"
     inkscape:label="Bottom"><path
       d="m 95.470399,744.39266 q -1.677082,3.6276 -5.067704,3.6276 -1.421874,0 -2.442707,-0.60156 -1.039061,-0.51042 -1.677082,-1.33073 -0.783853,-0.85677 -1.039061,-2.24218 -0.291667,-1.38542 -0.291667,-5.30469 0,-3.91926 0.291667,-5.34114 0.255208,-1.34896 1.039061,-2.20573 0.638021,-0.82031 1.677082,-1.36718 1.020833,-0.52865 2.442707,-0.56511 1.93229,0.0365 3.281247,1.11198 1.29427,1.13021 1.786457,2.73438 h 4.265621 q -0.63802,-3.33594 -3.062497,-5.59635 -2.424477,-2.24219 -6.270828,-2.27865 -3.135414,0.0365 -5.231767,1.49479 -2.13281,1.44011 -3.098955,3.28125 -0.601562,0.96614 -0.893229,2.53385 -0.273437,1.56771 -0.273437,6.19791 0,4.55729 0.273437,6.16146 0.145833,0.85677 0.364583,1.42187 0.236979,0.54687 0.528646,1.14844 0.966145,1.84114 3.098955,3.24479 2.096353,1.45833 5.231767,1.53124 3.463538,0 5.99739,-1.96874 2.460936,-1.98698 3.335935,-5.6875 z"
       style="font-weight:bold;font-family:'DIN Alternate';-inkscape-font-specification:'DIN Alternate Bold';fill:#000000;stroke:#ff0000;stroke-opacity:1;stroke-width:0.37795276;stroke-dasharray:none;fill-opacity:1"
       id="path5056" /><path
       d="m 118.12663,751.83015 h 4.02864 v -26.5781 h -4.02864 v 11.39322 h -10.51822 v -11.39322 h -4.02864 v 26.5781 h 4.02864 v -11.61196 h 10.51822 z"
       style="font-weight:bold;font-family:'DIN Alternate';-inkscape-font-specification:'DIN Alternate Bold';fill:#000000;stroke:#ff0000;stroke-opacity:1;stroke-width:0.37795276;stroke-dasharray:none;fill-opacity:1"
       id="path5058" /><path
       d="m 127.85839,738.5411 q 0,4.55729 0.27344,6.16146 0.14583,0.85677 0.36458,1.42187 0.23698,0.54687 0.52865,1.14844 0.96614,1.84114 3.09896,3.24479 2.09635,1.45833 5.23176,1.53124 3.17187,-0.0729 5.28646,-1.53124 2.09635,-1.40365 3.02603,-3.24479 0.67448,-0.96615 0.92969,-2.57031 0.23698,-1.60417 0.23698,-6.16146 0,-4.6302 -0.23698,-6.19791 -0.25521,-1.56771 -0.92969,-2.53385 -0.92968,-1.84114 -3.02603,-3.28125 -2.11459,-1.45833 -5.28646,-1.49479 -3.13541,0.0365 -5.23176,1.49479 -2.13282,1.44011 -3.09896,3.28125 -0.60156,0.96614 -0.89323,2.53385 -0.27344,1.56771 -0.27344,6.19791 z m 4.04688,0 q 0,-3.91926 0.29166,-5.34114 0.25521,-1.34896 1.03906,-2.20573 0.63802,-0.82031 1.67709,-1.36718 1.02083,-0.52865 2.4427,-0.56511 1.4401,0.0365 2.4974,0.56511 1.0026,0.54687 1.60416,1.36718 0.78385,0.85677 1.07552,2.20573 0.27344,1.42188 0.27344,5.34114 0,3.91927 -0.27344,5.30469 -0.29167,1.38541 -1.07552,2.24218 -0.60156,0.82031 -1.60416,1.33073 -1.0573,0.60156 -2.4974,0.60156 -1.42187,0 -2.4427,-0.60156 -1.03907,-0.51042 -1.67709,-1.33073 -0.78385,-0.85677 -1.03906,-2.24218 -0.29166,-1.38542 -0.29166,-5.30469 z"
       style="font-weight:bold;font-family:'DIN Alternate';-inkscape-font-specification:'DIN Alternate Bold';fill:#000000;stroke:#ff0000;stroke-opacity:1;stroke-width:0.37795276;stroke-dasharray:none;fill-opacity:1"
       id="path5060" /><path
       d="m 152.53806,751.83015 h 4.02865 v -8.09374 l 4.66666,-4.90364 v 0 l 7.23697,12.99738 h 4.77604 l -9.40624,-16.09634 8.51301,-10.48176 h -4.77604 l -10.93749,13.69009 h -0.0729 v -13.69009 h -4.02865 z"
       style="font-weight:bold;font-family:'DIN Alternate';-inkscape-font-specification:'DIN Alternate Bold';fill:#000000;stroke:#ff0000;stroke-opacity:1;stroke-width:0.37795276;stroke-dasharray:none;fill-opacity:1"
       id="path5062" /><path
       d="M 177.05366,751.83015 H 194.025 v -3.80989 h -12.94269 v -7.80207 h 11.04686 v -3.57292 h -11.04686 v -7.58333 H 194.025 v -3.80989 h -16.97134 z"
       style="font-weight:bold;font-family:'DIN Alternate';-inkscape-font-specification:'DIN Alternate Bold';fill:#000000;stroke:#ff0000;stroke-opacity:1;stroke-width:0.37795276;stroke-dasharray:none;fill-opacity:1"
       id="path5064" /><path
       d="m 203.44688,751.83015 h 3.79166 v -10.93749 l 8.0026,-15.64061 h -4.26562 l -5.63281,11.79426 v 0 l -5.63281,-11.79426 h -4.26562 l 8.0026,15.64061 z"
       style="font-weight:bold;font-family:'DIN Alternate';-inkscape-font-specification:'DIN Alternate Bold';fill:#000000;stroke:#ff0000;stroke-opacity:1;stroke-width:0.37795276;stroke-dasharray:none;fill-opacity:1"
       id="path5066" /><path
       d="m 234.13695,742.31454 3.84635,-11.61197 h 0.0729 l 3.84635,11.61197 z m 10.97395,9.51561 h 4.24739 l -9.66145,-26.5781 h -3.37239 l -9.66145,26.5781 h 4.26562 l 2.04167,-5.9427 h 10.08072 z"
       style="font-weight:bold;font-family:'DIN Alternate';-inkscape-font-specification:'DIN Alternate Bold';fill:#000000;stroke:#ff0000;stroke-opacity:1;stroke-width:0.37795276;stroke-dasharray:none;fill-opacity:1"
       id="path5068" /><path
       d="m 256.06402,751.83015 h 3.35416 l 5.08594,-19.15883 h 0.0729 l 5.06771,19.15883 h 3.37239 l 6.63541,-26.5781 h -4.24739 l -4.19271,18.8854 h -0.0729 l -5.14062,-18.8854 h -2.91667 l -5.15885,18.8854 h -0.0729 l -4.17448,-18.8854 h -4.24739 z"
       style="font-weight:bold;font-family:'DIN Alternate';-inkscape-font-specification:'DIN Alternate Bold';fill:#000000;stroke:#ff0000;stroke-opacity:1;stroke-width:0.37795276;stroke-dasharray:none;fill-opacity:1"
       id="path5070" /><path
       d="m 287.19681,742.31454 3.84635,-11.61197 h 0.0729 l 3.84635,11.61197 z m 10.97395,9.51561 h 4.24739 l -9.66145,-26.5781 h -3.37239 l -9.66145,26.5781 h 4.26562 l 2.04167,-5.9427 h 10.08072 z"
       style="font-weight:bold;font-family:'DIN Alternate';-inkscape-font-specification:'DIN Alternate Bold';fill:#000000;stroke:#ff0000;stroke-opacity:1;stroke-width:0.37795276;stroke-dasharray:none;fill-opacity:1"
       id="path5072" /><path
       d="m 306.26189,751.83015 h 4.02865 v -26.5781 h -4.02865 z"
       style="font-weight:bold;font-family:'DIN Alternate';-inkscape-font-specification:'DIN Alternate Bold';fill:#000000;stroke:#ff0000;stroke-opacity:1;stroke-width:0.37795276;stroke-dasharray:none;fill-opacity:1"
       id="path5074" /><path
       d="m 321.38948,751.83015 h 4.04687 v -22.98696 h 7.27343 v -3.59114 h -18.59373 v 3.59114 h 7.27343 z"
       style="font-weight:bold;font-family:'DIN Alternate';-inkscape-font-specification:'DIN Alternate Bold';fill:#000000;stroke:#ff0000;stroke-opacity:1;stroke-width:0.37795276;stroke-dasharray:none;fill-opacity:1"
       id="path5076" /><path
       d="m 336.88166,745.37703 -2.64323,3.02604 q 4.2474,3.64583 10.15364,3.64583 9.1328,-0.10937 9.33333,-7.72916 0,-2.82551 -1.76823,-4.95832 -1.78646,-2.16927 -5.52343,-2.67969 -1.89584,-0.23698 -2.98959,-0.41927 -1.96874,-0.36458 -2.86197,-1.3125 -0.89323,-0.92969 -0.89323,-2.07812 0.0365,-1.91406 1.33073,-2.88021 1.23958,-0.92969 3.09895,-0.92969 3.59115,0.0729 6.58073,2.04167 v 0 l 2.24218,-3.31771 q -3.66406,-2.64322 -8.62239,-2.7526 -4.11978,0.0365 -6.36197,2.15104 -2.3151,2.13281 -2.3151,5.61458 0,2.89844 1.84114,4.92187 1.78646,1.96875 5.21354,2.53385 1.91406,0.27344 3.51823,0.49219 3.49999,0.60156 3.46353,3.57291 -0.0729,3.62761 -5.24999,3.70052 -4.375,-0.0365 -7.54687,-2.64323 z"
       style="font-weight:bold;font-family:'DIN Alternate';-inkscape-font-specification:'DIN Alternate Bold';fill:#000000;stroke:#ff0000;stroke-opacity:1;stroke-width:0.37795276;stroke-dasharray:none;fill-opacity:1"
       id="path5078" /><path
       d="m 374.62642,742.31454 3.84635,-11.61197 h 0.0729 l 3.84635,11.61197 z m 10.97395,9.51561 h 4.24739 l -9.66145,-26.5781 h -3.37239 l -9.66145,26.5781 h 4.26562 l 2.04167,-5.9427 h 10.08072 z"
       style="font-weight:bold;font-family:'DIN Alternate';-inkscape-font-specification:'DIN Alternate Bold';fill:#000000;stroke:#ff0000;stroke-opacity:1;stroke-width:0.37795276;stroke-dasharray:none;fill-opacity:1"
       id="path5080" /><path
       d="m 393.69152,751.83015 h 4.02864 v -18.8854 h 0.0729 l 12.01301,18.8854 h 3.80989 v -26.5781 h -4.02864 v 18.8854 h -0.0729 l -12.03124,-18.8854 h -3.79166 z"
       style="font-weight:bold;font-family:'DIN Alternate';-inkscape-font-specification:'DIN Alternate Bold';fill:#000000;stroke:#ff0000;stroke-opacity:1;stroke-width:0.37795276;stroke-dasharray:none;fill-opacity:1"
       id="path5082" /><path
       d="m 424.86076,751.83015 h 3.79166 v -10.93749 l 8.0026,-15.64061 h -4.26562 l -5.63281,11.79426 v 0 l -5.63281,-11.79426 h -4.26562 l 8.0026,15.64061 z"
       style="font-weight:bold;font-family:'DIN Alternate';-inkscape-font-specification:'DIN Alternate Bold';fill:#000000;stroke:#ff0000;stroke-opacity:1;stroke-width:0.37795276;stroke-dasharray:none;fill-opacity:1"
       id="path5084" /><path
       d="m 451.17583,745.37703 -2.64322,3.02604 q 4.24739,3.64583 10.15363,3.64583 9.13281,-0.10937 9.33333,-7.72916 0,-2.82551 -1.76823,-4.95832 -1.78645,-2.16927 -5.52343,-2.67969 -1.89583,-0.23698 -2.98958,-0.41927 -1.96875,-0.36458 -2.86198,-1.3125 -0.89323,-0.92969 -0.89323,-2.07812 0.0365,-1.91406 1.33073,-2.88021 1.23958,-0.92969 3.09896,-0.92969 3.59114,0.0729 6.58072,2.04167 v 0 l 2.24219,-3.31771 q -3.66406,-2.64322 -8.62239,-2.7526 -4.11979,0.0365 -6.36198,2.15104 -2.3151,2.13281 -2.3151,5.61458 0,2.89844 1.84115,4.92187 1.78645,1.96875 5.21353,2.53385 1.91406,0.27344 3.51823,0.49219 3.5,0.60156 3.46354,3.57291 -0.0729,3.62761 -5.25,3.70052 -4.37499,-0.0365 -7.54687,-2.64323 z"
       style="font-weight:bold;font-family:'DIN Alternate';-inkscape-font-specification:'DIN Alternate Bold';fill:#000000;stroke:#ff0000;stroke-opacity:1;stroke-width:0.37795276;stroke-dasharray:none;fill-opacity:1"
       id="path5086" /><path
       d="m 484.82424,747.09058 q -1.11198,0.92968 -2.97135,0.92968 -1.42187,0 -2.44271,-0.60156 -1.03906,-0.51042 -1.67708,-1.33073 -0.78385,-0.85677 -1.03906,-2.24218 -0.29167,-1.38542 -0.29167,-5.30469 0,-3.91926 0.29167,-5.34114 0.25521,-1.34896 1.03906,-2.20573 0.63802,-0.82031 1.67708,-1.36718 1.02084,-0.52865 2.44271,-0.56511 1.4401,0.0365 2.49739,0.56511 1.00261,0.54687 1.60417,1.36718 0.78385,0.85677 1.07552,2.20573 0.27344,1.42188 0.27344,5.34114 0,4.21094 -0.38282,5.55989 v 0 l -3.09895,-2.46093 v 0 l -2.38802,2.7526 z m 3.29948,2.64322 3.35416,2.69792 v 0 l 2.38802,-2.77083 -3.5,-2.78906 q 0.54688,-0.91146 0.78386,-2.55209 0.18229,-1.64062 0.18229,-5.77864 0,-4.6302 -0.23698,-6.19791 -0.25521,-1.56771 -0.92969,-2.53385 -0.92968,-1.84114 -3.02604,-3.28125 -2.11458,-1.45833 -5.28645,-1.49479 -3.13541,0.0365 -5.23177,1.49479 -2.13281,1.44011 -3.09895,3.28125 -0.60156,0.96614 -0.89323,2.53385 -0.27344,1.56771 -0.27344,6.19791 0,4.55729 0.27344,6.16146 0.14583,0.85677 0.36458,1.42187 0.23698,0.54687 0.52865,1.14844 0.96614,1.84114 3.09895,3.24479 2.09636,1.45833 5.23177,1.53124 3.91927,-0.0729 6.27083,-2.3151 z"
       style="font-weight:bold;font-family:'DIN Alternate';-inkscape-font-specification:'DIN Alternate Bold';fill:#000000;stroke:#ff0000;stroke-opacity:1;stroke-width:0.37795276;stroke-dasharray:none;fill-opacity:1"
       id="path5088" /><path
       d="m 496.32424,742.82495 q 0.0365,4.19271 2.77083,6.65364 2.67969,2.53386 6.67187,2.57031 4.0651,-0.0365 6.72656,-2.57031 2.64323,-2.46093 2.71614,-6.65364 v -17.5729 H 511.181 v 17.1354 q -0.0365,2.71615 -1.53125,4.13802 -1.53125,1.49479 -3.88281,1.49479 -2.35156,0 -3.84635,-1.49479 -1.53125,-1.42187 -1.56771,-4.13802 v -17.1354 h -4.02864 z"
       style="font-weight:bold;font-family:'DIN Alternate';-inkscape-font-specification:'DIN Alternate Bold';fill:#000000;stroke:#ff0000;stroke-opacity:1;stroke-width:0.37795276;stroke-dasharray:none;fill-opacity:1"
       id="path5090" /><path
       d="m 521.33202,751.83015 h 4.02865 v -26.5781 h -4.02865 z"
       style="font-weight:bold;font-family:'DIN Alternate';-inkscape-font-specification:'DIN Alternate Bold';fill:#000000;stroke:#ff0000;stroke-opacity:1;stroke-width:0.37795276;stroke-dasharray:none;fill-opacity:1"
       id="path5092" /><path
       d="m 536.45962,751.83015 h 4.04688 v -22.98696 h 7.27343 v -3.59114 h -18.59374 v 3.59114 h 7.27343 z"
       style="font-weight:bold;font-family:'DIN Alternate';-inkscape-font-specification:'DIN Alternate Bold';fill:#000000;stroke:#ff0000;stroke-opacity:1;stroke-width:0.37795276;stroke-dasharray:none;fill-opacity:1"
       id="path5094" /><path
       d="m 566.82157,751.83015 h 3.35417 l 5.08593,-19.15883 h 0.0729 l 5.0677,19.15883 h 3.37239 l 6.63541,-26.5781 h -4.24739 l -4.1927,18.8854 h -0.0729 l -5.14062,-18.8854 h -2.91666 l -5.15885,18.8854 h -0.0729 l -4.17448,-18.8854 h -4.24739 z"
       style="font-weight:bold;font-family:'DIN Alternate';-inkscape-font-specification:'DIN Alternate Bold';fill:#000000;stroke:#ff0000;stroke-opacity:1;stroke-width:0.37795276;stroke-dasharray:none;fill-opacity:1"
       id="path5096" /><path
       d="m 609.18351,751.83015 h 4.02864 v -26.5781 h -4.02864 v 11.39322 h -10.51822 v -11.39322 h -4.02864 v 26.5781 h 4.02864 v -11.61196 h 10.51822 z"
       style="font-weight:bold;font-family:'DIN Alternate';-inkscape-font-specification:'DIN Alternate Bold';fill:#000000;stroke:#ff0000;stroke-opacity:1;stroke-width:0.37795276;stroke-dasharray:none;fill-opacity:1"
       id="path5098" /><path
       d="m 618.91532,738.5411 q 0,4.55729 0.27343,6.16146 0.14584,0.85677 0.36459,1.42187 0.23698,0.54687 0.52864,1.14844 0.96615,1.84114 3.09896,3.24479 2.09635,1.45833 5.23176,1.53124 3.17188,-0.0729 5.28646,-1.53124 2.09635,-1.40365 3.02604,-3.24479 0.67448,-0.96615 0.92968,-2.57031 0.23698,-1.60417 0.23698,-6.16146 0,-4.6302 -0.23698,-6.19791 -0.2552,-1.56771 -0.92968,-2.53385 -0.92969,-1.84114 -3.02604,-3.28125 -2.11458,-1.45833 -5.28646,-1.49479 -3.13541,0.0365 -5.23176,1.49479 -2.13281,1.44011 -3.09896,3.28125 -0.60156,0.96614 -0.89323,2.53385 -0.27343,1.56771 -0.27343,6.19791 z m 4.04687,0 q 0,-3.91926 0.29166,-5.34114 0.25521,-1.34896 1.03907,-2.20573 0.63802,-0.82031 1.67708,-1.36718 1.02083,-0.52865 2.4427,-0.56511 1.44011,0.0365 2.4974,0.56511 1.0026,0.54687 1.60416,1.36718 0.78386,0.85677 1.07552,2.20573 0.27344,1.42188 0.27344,5.34114 0,3.91927 -0.27344,5.30469 -0.29166,1.38541 -1.07552,2.24218 -0.60156,0.82031 -1.60416,1.33073 -1.05729,0.60156 -2.4974,0.60156 -1.42187,0 -2.4427,-0.60156 -1.03906,-0.51042 -1.67708,-1.33073 -0.78386,-0.85677 -1.03907,-2.24218 -0.29166,-1.38542 -0.29166,-5.30469 z"
       style="font-weight:bold;font-family:'DIN Alternate';-inkscape-font-specification:'DIN Alternate Bold';fill:#000000;stroke:#ff0000;stroke-opacity:1;stroke-width:0.37795276;stroke-dasharray:none;fill-opacity:1"
       id="path5100" /><path
       d="m 658.57411,729.06194 h 5.81509 q 1.64063,-0.0365 2.88021,0.7474 0.82031,0.47396 1.27604,1.29427 0.4375,0.91146 0.4375,2.24219 0,1.60416 -1.07552,2.91666 -1.13021,1.34896 -3.37239,1.38541 h -5.96093 z m -4.02865,22.76821 h 4.02865 v -10.37238 h 6.12499 q 4.10156,-0.0729 6.23437,-2.625 2.07812,-2.42448 2.07812,-5.3776 0,-2.1875 -0.82031,-3.79166 -0.78385,-1.65886 -2.04166,-2.55208 -1.49479,-1.1849 -2.95313,-1.56771 -1.45833,-0.29167 -3.02604,-0.29167 h -9.62499 z"
       style="font-weight:bold;font-family:'DIN Alternate';-inkscape-font-specification:'DIN Alternate Bold';fill:#000000;stroke:#ff0000;stroke-opacity:1;stroke-width:0.37795276;stroke-dasharray:none;fill-opacity:1"
       id="path5102" /><path
       d="m 679.60796,742.31454 3.84635,-11.61197 h 0.0729 l 3.84635,11.61197 z m 10.97395,9.51561 h 4.24739 l -9.66145,-26.5781 h -3.37239 l -9.66145,26.5781 h 4.26562 l 2.04166,-5.9427 h 10.08072 z"
       style="font-weight:bold;font-family:'DIN Alternate';-inkscape-font-specification:'DIN Alternate Bold';fill:#000000;stroke:#ff0000;stroke-opacity:1;stroke-width:0.37795276;stroke-dasharray:none;fill-opacity:1"
       id="path5104" /><path
       d="m 699.00115,745.37703 -2.64323,3.02604 q 4.2474,3.64583 10.15364,3.64583 9.13281,-0.10937 9.33333,-7.72916 0,-2.82551 -1.76823,-4.95832 -1.78646,-2.16927 -5.52343,-2.67969 -1.89584,-0.23698 -2.98958,-0.41927 -1.96875,-0.36458 -2.86198,-1.3125 -0.89323,-0.92969 -0.89323,-2.07812 0.0365,-1.91406 1.33073,-2.88021 1.23958,-0.92969 3.09895,-0.92969 3.59115,0.0729 6.58073,2.04167 v 0 l 2.24218,-3.31771 q -3.66406,-2.64322 -8.62238,-2.7526 -4.11979,0.0365 -6.36198,2.15104 -2.3151,2.13281 -2.3151,5.61458 0,2.89844 1.84114,4.92187 1.78646,1.96875 5.21354,2.53385 1.91406,0.27344 3.51823,0.49219 3.49999,0.60156 3.46354,3.57291 -0.0729,3.62761 -5.25,3.70052 -4.375,-0.0365 -7.54687,-2.64323 z"
       style="font-weight:bold;font-family:'DIN Alternate';-inkscape-font-specification:'DIN Alternate Bold';fill:#000000;stroke:#ff0000;stroke-opacity:1;stroke-width:0.37795276;stroke-dasharray:none;fill-opacity:1"
       id="path5106" /><path
       d="m 721.4204,745.37703 -2.64323,3.02604 q 4.2474,3.64583 10.15364,3.64583 9.13281,-0.10937 9.33333,-7.72916 0,-2.82551 -1.76823,-4.95832 -1.78646,-2.16927 -5.52343,-2.67969 -1.89583,-0.23698 -2.98958,-0.41927 -1.96875,-0.36458 -2.86198,-1.3125 -0.89323,-0.92969 -0.89323,-2.07812 0.0365,-1.91406 1.33073,-2.88021 1.23958,-0.92969 3.09895,-0.92969 3.59115,0.0729 6.58073,2.04167 v 0 l 2.24218,-3.31771 q -3.66406,-2.64322 -8.62238,-2.7526 -4.11979,0.0365 -6.36198,2.15104 -2.3151,2.13281 -2.3151,5.61458 0,2.89844 1.84114,4.92187 1.78646,1.96875 5.21354,2.53385 1.91406,0.27344 3.51823,0.49219 3.49999,0.60156 3.46354,3.57291 -0.0729,3.62761 -5.25,3.70052 -4.375,-0.0365 -7.54687,-2.64323 z"
       style="font-weight:bold;font-family:'DIN Alternate';-inkscape-font-specification:'DIN Alternate Bold';fill:#000000;stroke:#ff0000;stroke-opacity:1;stroke-width:0.37795276;stroke-dasharray:none;fill-opacity:1"
       id="path5108" /><path
       d="m 743.51153,751.83015 h 16.97134 v -3.80989 h -12.9427 v -7.80207 h 11.04687 v -3.57292 h -11.04687 v -7.58333 h 12.9427 v -3.80989 h -16.97134 z"
       style="font-weight:bold;font-family:'DIN Alternate';-inkscape-font-specification:'DIN Alternate Bold';fill:#000000;stroke:#ff0000;stroke-opacity:1;stroke-width:0.37795276;stroke-dasharray:none;fill-opacity:1"
       id="path5110" /><path
       d="m 765.60265,745.37703 -2.64322,3.02604 q 4.24739,3.64583 10.15363,3.64583 9.13281,-0.10937 9.33333,-7.72916 0,-2.82551 -1.76823,-4.95832 -1.78646,-2.16927 -5.52343,-2.67969 -1.89583,-0.23698 -2.98958,-0.41927 -1.96875,-0.36458 -2.86198,-1.3125 -0.89323,-0.92969 -0.89323,-2.07812 0.0365,-1.91406 1.33073,-2.88021 1.23958,-0.92969 3.09896,-0.92969 3.59114,0.0729 6.58072,2.04167 v 0 l 2.24219,-3.31771 q -3.66406,-2.64322 -8.62239,-2.7526 -4.11979,0.0365 -6.36198,2.15104 -2.3151,2.13281 -2.3151,5.61458 0,2.89844 1.84114,4.92187 1.78646,1.96875 5.21354,2.53385 1.91406,0.27344 3.51823,0.49219 3.5,0.60156 3.46354,3.57291 -0.0729,3.62761 -5.25,3.70052 -4.37499,-0.0365 -7.54687,-2.64323 z"
       style="font-weight:bold;font-family:'DIN Alternate';-inkscape-font-specification:'DIN Alternate Bold';fill:#000000;stroke:#ff0000;stroke-opacity:1;stroke-width:0.37795276;stroke-dasharray:none;fill-opacity:1"
       id="path5112" /><path
       d="m 803.14688,751.83015 h 4.04687 v -22.98696 h 7.27343 v -3.59114 h -18.59373 v 3.59114 h 7.27343 z"
       style="font-weight:bold;font-family:'DIN Alternate';-inkscape-font-specification:'DIN Alternate Bold';fill:#000000;stroke:#ff0000;stroke-opacity:1;stroke-width:0.37795276;stroke-dasharray:none;fill-opacity:1"
       id="path5114" /><path
       d="m 832.85783,751.83015 h 4.02864 v -26.5781 h -4.02864 v 11.39322 h -10.51822 v -11.39322 h -4.02864 v 26.5781 h 4.02864 v -11.61196 h 10.51822 z"
       style="font-weight:bold;font-family:'DIN Alternate';-inkscape-font-specification:'DIN Alternate Bold';fill:#000000;stroke:#ff0000;stroke-opacity:1;stroke-width:0.37795276;stroke-dasharray:none;fill-opacity:1"
       id="path5116" /><path
       d="m 843.50103,751.83015 h 4.02864 v -26.5781 h -4.02864 z"
       style="font-weight:bold;font-family:'DIN Alternate';-inkscape-font-specification:'DIN Alternate Bold';fill:#000000;stroke:#ff0000;stroke-opacity:1;stroke-width:0.37795276;stroke-dasharray:none;fill-opacity:1"
       id="path5118" /><path
       d="m 854.45415,745.37703 -2.64322,3.02604 q 4.24739,3.64583 10.15363,3.64583 9.13281,-0.10937 9.33333,-7.72916 0,-2.82551 -1.76823,-4.95832 -1.78645,-2.16927 -5.52343,-2.67969 -1.89583,-0.23698 -2.98958,-0.41927 -1.96875,-0.36458 -2.86198,-1.3125 -0.89323,-0.92969 -0.89323,-2.07812 0.0365,-1.91406 1.33073,-2.88021 1.23958,-0.92969 3.09896,-0.92969 3.59114,0.0729 6.58072,2.04167 v 0 l 2.24219,-3.31771 q -3.66406,-2.64322 -8.62239,-2.7526 -4.11979,0.0365 -6.36198,2.15104 -2.3151,2.13281 -2.3151,5.61458 0,2.89844 1.84115,4.92187 1.78645,1.96875 5.21353,2.53385 1.91406,0.27344 3.51823,0.49219 3.5,0.60156 3.46354,3.57291 -0.0729,3.62761 -5.25,3.70052 -4.37499,-0.0365 -7.54687,-2.64323 z"
       style="font-weight:bold;font-family:'DIN Alternate';-inkscape-font-specification:'DIN Alternate Bold';fill:#000000;stroke:#ff0000;stroke-opacity:1;stroke-width:0.37795276;stroke-dasharray:none;fill-opacity:1"
       id="path5120" /><path
       d="m 887.82391,745.37703 -2.64323,3.02604 q 4.24739,3.64583 10.15364,3.64583 9.1328,-0.10937 9.33332,-7.72916 0,-2.82551 -1.76823,-4.95832 -1.78645,-2.16927 -5.52343,-2.67969 -1.89583,-0.23698 -2.98958,-0.41927 -1.96875,-0.36458 -2.86198,-1.3125 -0.89323,-0.92969 -0.89323,-2.07812 0.0365,-1.91406 1.33073,-2.88021 1.23958,-0.92969 3.09896,-0.92969 3.59114,0.0729 6.58072,2.04167 v 0 l 2.24219,-3.31771 q -3.66406,-2.64322 -8.62239,-2.7526 -4.11979,0.0365 -6.36197,2.15104 -2.31511,2.13281 -2.31511,5.61458 0,2.89844 1.84115,4.92187 1.78645,1.96875 5.21353,2.53385 1.91407,0.27344 3.51823,0.49219 3.5,0.60156 3.46354,3.57291 -0.0729,3.62761 -5.25,3.70052 -4.37499,-0.0365 -7.54686,-2.64323 z"
       style="font-weight:bold;font-family:'DIN Alternate';-inkscape-font-specification:'DIN Alternate Bold';fill:#000000;stroke:#ff0000;stroke-opacity:1;stroke-width:0.37795276;stroke-dasharray:none;fill-opacity:1"
       id="path5122" /><path
       d="m 909.91503,751.83015 h 4.02864 v -26.5781 h -4.02864 z"
       style="font-weight:bold;font-family:'DIN Alternate';-inkscape-font-specification:'DIN Alternate Bold';fill:#000000;stroke:#ff0000;stroke-opacity:1;stroke-width:0.37795276;stroke-dasharray:none;fill-opacity:1"
       id="path5124" /><path
       d="m 929.16242,741.00204 h 5.41406 v 1.38541 q -0.0365,2.4974 -1.56771,4.02865 -1.53125,1.60416 -3.88281,1.60416 -1.42187,0 -2.44271,-0.60156 -1.03906,-0.51042 -1.67708,-1.33073 -0.78385,-0.85677 -1.03906,-2.24218 -0.29166,-1.38542 -0.29166,-5.30469 0,-3.91926 0.29166,-5.34114 0.25521,-1.34896 1.03906,-2.20573 0.63802,-0.82031 1.67708,-1.36718 1.02084,-0.52865 2.44271,-0.56511 1.93229,0.0365 3.28125,1.11198 1.29427,1.13021 1.78646,2.73438 h 4.26562 q -0.63802,-3.33594 -3.0625,-5.59635 -2.42448,-2.24219 -6.27083,-2.27865 -3.13541,0.0365 -5.23177,1.49479 -2.13281,1.44011 -3.09895,3.28125 -0.60156,0.96614 -0.89323,2.53385 -0.27344,1.56771 -0.27344,6.19791 0,4.55729 0.27344,6.16146 0.14583,0.85677 0.36458,1.42187 0.23698,0.54687 0.52865,1.14844 0.96614,1.84114 3.09895,3.24479 2.09636,1.45833 5.23177,1.53124 4.0651,-0.0729 6.74479,-2.7526 2.66145,-2.69791 2.73437,-6.6901 v -5.41405 h -9.4427 z"
       style="font-weight:bold;font-family:'DIN Alternate';-inkscape-font-specification:'DIN Alternate Bold';fill:#000000;stroke:#ff0000;stroke-opacity:1;stroke-width:0.37795276;stroke-dasharray:none;fill-opacity:1"
       id="path5126" /><path
       d="m 944.30828,751.83015 h 4.02864 v -18.8854 h 0.0729 l 12.01301,18.8854 h 3.80989 v -26.5781 h -4.02864 v 18.8854 h -0.0729 l -12.03124,-18.8854 h -3.79166 z"
       style="font-weight:bold;font-family:'DIN Alternate';-inkscape-font-specification:'DIN Alternate Bold';fill:#000000;stroke:#ff0000;stroke-opacity:1;stroke-width:0.37795276;stroke-dasharray:none;fill-opacity:1"
       id="path5128" /><path
       d="m 970.6103,751.83015 h 3.8099 v -3.80989 h -3.8099 z"
       style="font-weight:bold;font-family:'DIN Alternate';-inkscape-font-specification:'DIN Alternate Bold';fill:#000000;stroke:#ff0000;stroke-opacity:1;stroke-width:0.37795276;stroke-dasharray:none;fill-opacity:1"
       id="path5130" /></g><rect
     style="fill:#000000;fill-opacity:1;stroke:#ff0000;stroke-width:0.1;stroke-dasharray:none;stroke-opacity:1;paint-order:markers stroke fill"
     id="rect4947"
     width="103.43206"
     height="1.27"
     x="87.983971"
     y="40.566311"
     ry="0" /><rect
     style="fill:#000000;fill-opacity:1;stroke:#ff0000;stroke-width:0.1;stroke-dasharray:none;stroke-opacity:1;paint-order:markers stroke fill"
     id="rect4949"
     width="65.096558"
     height="1.905"
     x="41.918484"
     y="173.20992" /><g
     aria-label="MAGGOTS MUST NOT ENTER!"
     transform="matrix(0.26458333,0,0,0.26458333,-0.19895716,10.951809)"
     id="text4822"
     style="font-weight:bold;font-size:146.667px;line-height:1.04;font-family:'DIN Alternate';-inkscape-font-specification:'DIN Alternate Bold';text-align:center;text-anchor:middle;white-space:pre;shape-inside:url(#rect4824);display:inline;fill:#000000;stroke-width:0.37795276;paint-order:markers stroke fill;stroke:#ff0000;stroke-opacity:1;stroke-dasharray:none;fill-opacity:1"
     inkscape:label="Middle"><path
       d="m 228.47131,302.3271 h 15.82686 v -65.09781 h 0.28646 l 21.8425,50.13032 h 13.17711 l 21.8425,-50.13032 h 0.35807 v 65.09781 h 15.82686 V 197.91279 h -14.96748 l -29.36205,68.03401 v 0 l -29.93496,-68.03401 h -14.89587 z"
       id="path5015"
       style="fill:#000000;stroke:#ff0000;stroke-opacity:1;stroke-width:0.37795276;stroke-dasharray:none;fill-opacity:1" /><path
       d="m 358.09401,264.9442 15.11071,-45.6186 h 0.28646 l 15.11071,45.6186 z m 43.11208,37.3829 h 16.68624 L 379.93651,197.91279 H 366.68778 L 328.73196,302.3271 h 16.75785 l 8.02086,-23.34641 h 39.60295 z"
       id="path5017"
       style="fill:#000000;stroke:#ff0000;stroke-opacity:1;stroke-width:0.37795276;stroke-dasharray:none;fill-opacity:1" /><path
       d="m 460.28826,259.78793 h 21.26958 v 5.44273 q -0.14323,9.81122 -6.15887,15.82685 -6.01563,6.3021 -15.25394,6.3021 -5.58595,0 -9.59637,-2.36328 -4.08204,-2.00522 -6.58856,-5.22788 -3.07944,-3.36589 -4.08204,-8.80861 -1.14584,-5.44273 -1.14584,-20.8399 0,-15.39717 1.14584,-20.98312 1.0026,-5.29949 4.08204,-8.66538 2.50652,-3.22267 6.58856,-5.37111 4.01042,-2.07683 9.59637,-2.22006 7.59117,0.14323 12.89066,4.3685 5.08464,4.44012 7.01824,10.74222 h 16.75785 q -2.50651,-13.1055 -12.03127,-21.98573 -9.52477,-8.80862 -24.63548,-8.95185 -12.31773,0.14323 -20.55343,5.87241 -8.37893,5.65757 -12.17451,12.89066 -2.36328,3.79558 -3.50912,9.95445 -1.07422,6.15887 -1.07422,24.34901 0,17.90369 1.07422,24.20579 0.57292,3.36589 1.43229,5.58595 0.931,2.14844 2.07683,4.51173 3.79558,7.23309 12.17451,12.74742 8.2357,5.72918 20.55343,6.01564 15.97009,-0.28646 26.49746,-10.81382 10.45575,-10.59899 10.74221,-26.28262 v -21.26958 h -37.09644 z"
       id="path5019"
       style="fill:#000000;stroke:#ff0000;stroke-opacity:1;stroke-width:0.37795276;stroke-dasharray:none;fill-opacity:1" /><path
       d="m 549.73507,259.78793 h 21.26958 v 5.44273 q -0.14323,9.81122 -6.15887,15.82685 -6.01564,6.3021 -15.25394,6.3021 -5.58595,0 -9.59638,-2.36328 -4.08204,-2.00522 -6.58855,-5.22788 -3.07944,-3.36589 -4.08204,-8.80861 -1.14584,-5.44273 -1.14584,-20.8399 0,-15.39717 1.14584,-20.98312 1.0026,-5.29949 4.08204,-8.66538 2.50651,-3.22267 6.58855,-5.37111 4.01043,-2.07683 9.59638,-2.22006 7.59116,0.14323 12.89066,4.3685 5.08464,4.44012 7.01824,10.74222 h 16.75785 q -2.50651,-13.1055 -12.03128,-21.98573 -9.52476,-8.80862 -24.63547,-8.95185 -12.31774,0.14323 -20.55343,5.87241 -8.37893,5.65757 -12.17451,12.89066 -2.36329,3.79558 -3.50912,9.95445 -1.07422,6.15887 -1.07422,24.34901 0,17.90369 1.07422,24.20579 0.57292,3.36589 1.43229,5.58595 0.93099,2.14844 2.07683,4.51173 3.79558,7.23309 12.17451,12.74742 8.23569,5.72918 20.55343,6.01564 15.97009,-0.28646 26.49746,-10.81382 10.45575,-10.59899 10.74221,-26.28262 v -21.26958 h -37.09644 z"
       id="path5021"
       style="fill:#000000;stroke:#ff0000;stroke-opacity:1;stroke-width:0.37795276;stroke-dasharray:none;fill-opacity:1" /><path
       d="m 601.72739,250.11994 q 0,17.90369 1.07423,24.20579 0.57291,3.36589 1.43229,5.58595 0.93099,2.14844 2.07683,4.51173 3.79558,7.23309 12.17451,12.74742 8.23569,5.72918 20.55343,6.01564 12.46097,-0.28646 20.76828,-6.01564 8.23569,-5.51433 11.88804,-12.74742 2.64975,-3.79558 3.65236,-10.09768 0.93099,-6.3021 0.93099,-24.20579 0,-18.19014 -0.93099,-24.34901 -1.00261,-6.15887 -3.65236,-9.95445 -3.65235,-7.23309 -11.88804,-12.89066 -8.30731,-5.72918 -20.76828,-5.87241 -12.31774,0.14323 -20.55343,5.87241 -8.37893,5.65757 -12.17451,12.89066 -2.36329,3.79558 -3.50912,9.95445 -1.07423,6.15887 -1.07423,24.34901 z m 15.89848,0 q 0,-15.39717 1.14583,-20.98312 1.00261,-5.29949 4.08205,-8.66538 2.50651,-3.22267 6.58855,-5.37111 4.01043,-2.07683 9.59638,-2.22006 5.65756,0.14323 9.81122,2.22006 3.93881,2.14844 6.3021,5.37111 3.07943,3.36589 4.22527,8.66538 1.07422,5.58595 1.07422,20.98312 0,15.39717 -1.07422,20.8399 -1.14584,5.44272 -4.22527,8.80861 -2.36329,3.22266 -6.3021,5.22788 -4.15366,2.36328 -9.81122,2.36328 -5.58595,0 -9.59638,-2.36328 -4.08204,-2.00522 -6.58855,-5.22788 -3.07944,-3.36589 -4.08205,-8.80861 -1.14583,-5.44273 -1.14583,-20.8399 z"
       id="path5023"
       style="fill:#000000;stroke:#ff0000;stroke-opacity:1;stroke-width:0.37795276;stroke-dasharray:none;fill-opacity:1" /><path
       d="m 709.79403,302.3271 h 15.89848 v -90.3062 h 28.57428 v -14.10811 h -73.04704 v 14.10811 h 28.57428 z"
       id="path5025"
       style="fill:#000000;stroke:#ff0000;stroke-opacity:1;stroke-width:0.37795276;stroke-dasharray:none;fill-opacity:1" /><path
       d="m 766.72778,276.97547 -10.38414,11.88805 q 16.68624,14.32295 39.88942,14.32295 35.87899,-0.42969 36.66675,-30.36465 0,-11.10029 -6.94663,-19.47921 -7.01825,-8.52216 -21.69927,-10.52737 -7.44793,-0.93099 -11.74482,-1.64714 -7.73439,-1.4323 -11.24351,-5.15626 -3.50913,-3.65236 -3.50913,-8.16408 0.14323,-7.51955 5.22788,-11.31513 4.8698,-3.65236 12.17451,-3.65236 14.1081,0.28646 25.85292,8.02085 v 0 l 8.80862,-13.03388 q -14.39457,-10.38414 -33.87378,-10.81383 -16.18493,0.14323 -24.99355,8.45054 -9.09507,8.37893 -9.09507,22.05735 0,11.38674 7.23309,19.33598 7.01824,7.73439 20.48182,9.95445 7.51955,1.07422 13.82164,1.9336 13.75004,2.36328 13.60681,14.03649 -0.28646,14.25133 -20.62505,14.53779 -17.18754,-0.14323 -29.64851,-10.38414 z"
       id="path5027"
       style="fill:#000000;stroke:#ff0000;stroke-opacity:1;stroke-width:0.37795276;stroke-dasharray:none;fill-opacity:1" /><path
       d="m 358.52369,454.86079 h 15.82686 v -65.09781 h 0.28646 l 21.8425,50.13032 h 13.17712 l 21.84249,-50.13032 h 0.35808 v 65.09781 h 15.82686 V 350.44648 h -14.96748 l -29.36205,68.03401 v 0 l -29.93497,-68.03401 h -14.89587 z"
       id="path5029"
       style="fill:#000000;stroke:#ff0000;stroke-opacity:1;stroke-width:0.37795276;stroke-dasharray:none;fill-opacity:1" /><path
       d="m 467.73619,419.4831 q 0.14323,16.47139 10.88544,26.13938 10.52737,9.95445 26.211,10.09768 15.97009,-0.14323 26.42584,-10.09768 10.38414,-9.66799 10.6706,-26.13938 v -69.03662 h -15.82686 v 67.31787 q -0.14323,10.67059 -6.01564,16.25654 -6.01564,5.87241 -15.25394,5.87241 -9.2383,0 -15.11071,-5.87241 -6.01564,-5.58595 -6.15887,-16.25654 v -67.31787 h -15.82686 z"
       id="path5031"
       style="fill:#000000;stroke:#ff0000;stroke-opacity:1;stroke-width:0.37795276;stroke-dasharray:none;fill-opacity:1" /><path
       d="m 563.34187,429.50917 -10.38413,11.88804 q 16.68623,14.32295 39.88941,14.32295 35.87899,-0.42968 36.66675,-30.36465 0,-11.10029 -6.94663,-19.47921 -7.01824,-8.52216 -21.69927,-10.52737 -7.44793,-0.93099 -11.74482,-1.64714 -7.73439,-1.43229 -11.24351,-5.15626 -3.50912,-3.65235 -3.50912,-8.16408 0.14322,-7.51955 5.22787,-11.31513 4.86981,-3.65236 12.17451,-3.65236 14.10811,0.28646 25.85292,8.02086 v 0 l 8.80862,-13.03389 q -14.39457,-10.38414 -33.87378,-10.81383 -16.18493,0.14323 -24.99355,8.45055 -9.09507,8.37892 -9.09507,22.05734 0,11.38674 7.23309,19.33598 7.01825,7.73439 20.48182,9.95445 7.51955,1.07422 13.82165,1.9336 13.75003,2.36329 13.6068,14.03649 -0.28646,14.25134 -20.62505,14.53779 -17.18754,-0.14323 -29.64851,-10.38413 z"
       id="path5033"
       style="fill:#000000;stroke:#ff0000;stroke-opacity:1;stroke-width:0.37795276;stroke-dasharray:none;fill-opacity:1" /><path
       d="m 663.88899,454.86079 h 15.89848 v -90.3062 h 28.57428 v -14.10811 h -73.04704 v 14.10811 h 28.57428 z"
       id="path5035"
       style="fill:#000000;stroke:#ff0000;stroke-opacity:1;stroke-width:0.37795276;stroke-dasharray:none;fill-opacity:1" /><path
       d="M 159.18404,607.39448 H 175.0109 V 533.2016 h 0.28646 l 47.19412,74.19288 h 14.96748 V 502.98017 H 221.6321 v 74.19288 h -0.28646 l -47.26573,-74.19288 h -14.89587 z"
       id="path5037"
       style="fill:#000000;stroke:#ff0000;stroke-opacity:1;stroke-width:0.37795276;stroke-dasharray:none;fill-opacity:1" /><path
       d="m 255.93557,555.18733 q 0,17.90368 1.07422,24.20578 0.57292,3.36589 1.4323,5.58595 0.93099,2.14844 2.07682,4.51173 3.79558,7.23309 12.17451,12.74743 8.2357,5.72918 20.55343,6.01564 12.46097,-0.28646 20.76828,-6.01564 8.2357,-5.51434 11.88805,-12.74743 2.64975,-3.79558 3.65235,-10.09768 0.93099,-6.3021 0.93099,-24.20578 0,-18.19015 -0.93099,-24.34902 -1.0026,-6.15887 -3.65235,-9.95445 -3.65235,-7.23309 -11.88805,-12.89065 -8.30731,-5.72918 -20.76828,-5.87241 -12.31773,0.14323 -20.55343,5.87241 -8.37893,5.65756 -12.17451,12.89065 -2.36328,3.79558 -3.50912,9.95445 -1.07422,6.15887 -1.07422,24.34902 z m 15.89847,0 q 0,-15.39718 1.14584,-20.98313 1.00261,-5.29949 4.08204,-8.66538 2.50652,-3.22266 6.58856,-5.37111 4.01042,-2.07682 9.59637,-2.22005 5.65757,0.14323 9.81122,2.22005 3.93882,2.14845 6.3021,5.37111 3.07944,3.36589 4.22527,8.66538 1.07422,5.58595 1.07422,20.98313 0,15.39717 -1.07422,20.83989 -1.14583,5.44272 -4.22527,8.80861 -2.36328,3.22267 -6.3021,5.22788 -4.15365,2.36329 -9.81122,2.36329 -5.58595,0 -9.59637,-2.36329 -4.08204,-2.00521 -6.58856,-5.22788 -3.07943,-3.36589 -4.08204,-8.80861 -1.14584,-5.44272 -1.14584,-20.83989 z"
       id="path5039"
       style="fill:#000000;stroke:#ff0000;stroke-opacity:1;stroke-width:0.37795276;stroke-dasharray:none;fill-opacity:1" /><path
       d="m 364.00222,607.39448 h 15.89847 v -90.3062 h 28.57429 v -14.10811 h -73.04705 v 14.10811 h 28.57429 z"
       id="path5041"
       style="fill:#000000;stroke:#ff0000;stroke-opacity:1;stroke-width:0.37795276;stroke-dasharray:none;fill-opacity:1" /><path
       d="m 454.80971,607.39448 h 66.67333 V 592.427 h -50.84647 v -30.65112 h 43.39854 v -14.03649 h -43.39854 v -29.79173 h 50.84647 v -14.96749 h -66.67333 z"
       id="path5043"
       style="fill:#000000;stroke:#ff0000;stroke-opacity:1;stroke-width:0.37795276;stroke-dasharray:none;fill-opacity:1" /><path
       d="m 536.37892,607.39448 h 15.82686 V 533.2016 h 0.28646 l 47.19412,74.19288 h 14.96749 V 502.98017 h -15.82686 v 74.19288 h -0.28646 l -47.26574,-74.19288 h -14.89587 z"
       id="path5045"
       style="fill:#000000;stroke:#ff0000;stroke-opacity:1;stroke-width:0.37795276;stroke-dasharray:none;fill-opacity:1" /><path
       d="m 654.40004,607.39448 h 15.89848 v -90.3062 h 28.57428 v -14.10811 h -73.04704 v 14.10811 h 28.57428 z"
       id="path5047"
       style="fill:#000000;stroke:#ff0000;stroke-opacity:1;stroke-width:0.37795276;stroke-dasharray:none;fill-opacity:1" /><path
       d="m 710.0447,607.39448 h 66.67333 V 592.427 h -50.84647 v -30.65112 h 43.39853 v -14.03649 h -43.39853 v -29.79173 h 50.84647 V 502.98017 H 710.0447 Z"
       id="path5049"
       style="fill:#000000;stroke:#ff0000;stroke-opacity:1;stroke-width:0.37795276;stroke-dasharray:none;fill-opacity:1" /><path
       d="m 807.44077,517.08828 h 24.7787 q 7.59117,0 11.60159,3.22266 5.08465,3.65235 5.22788,11.81644 0,6.8034 -4.3685,11.45836 -4.44012,5.01303 -13.32034,5.15626 h -23.91933 z m -15.82686,90.3062 h 15.82686 v -44.61599 h 20.19536 l 21.55604,44.61599 h 18.83468 l -24.20579,-46.33474 q 19.9089,-7.66278 20.19536,-28.93236 -0.42969,-14.46618 -10.38414,-22.27219 -8.23569,-6.87502 -21.26958,-6.87502 h -40.74879 z"
       id="path5051"
       style="fill:#000000;stroke:#ff0000;stroke-opacity:1;stroke-width:0.37795276;stroke-dasharray:none;fill-opacity:1" /><path
       d="m 885.14279,581.61317 h 7.44793 l 5.72918,-78.633 h -18.76306 z m -3.65235,25.78131 h 14.96748 V 592.427 h -14.96748 z"
       id="path5053"
       style="fill:#000000;stroke:#ff0000;stroke-opacity:1;stroke-width:0.37795276;stroke-dasharray:none;fill-opacity:1" /></g><g
     aria-label="WARNING"
     transform="matrix(0.26458333,0,0,0.26458333,0.48834555,14.237351)"
     id="text4889"
     style="font-weight:bold;font-size:93.3333px;font-family:'DIN Alternate';-inkscape-font-specification:'DIN Alternate Bold';text-align:center;text-anchor:middle;white-space:pre;fill:#000000;stroke-width:0.37795276;paint-order:markers stroke fill;stroke:#ff0000;stroke-opacity:1;stroke-dasharray:none;fill-opacity:1"
     inkscape:label="Top"><path
       d="m 347.28067,91.745402 h 8.38541 l 12.71484,-47.897117 h 0.18229 l 12.66927,47.897117 h 8.43098 L 406.252,25.300115 h -10.61849 l -10.48176,47.213524 h -0.18229 L 372.1179,25.300115 h -7.29167 L 351.9291,72.513639 h -0.18229 L 341.31062,25.300115 h -10.61849 z"
       id="path4986"
       style="fill:#000000;stroke:#ff0000;stroke-opacity:1;stroke-width:0.37795276;stroke-dasharray:none;fill-opacity:1" /><path
       d="m 422.61267,67.956349 9.61588,-29.029937 h 0.18229 l 9.61589,29.029937 z m 27.43489,23.789053 h 10.61848 L 436.51241,25.300115 h -8.43099 l -24.15364,66.445287 h 10.66406 l 5.10417,-14.856765 h 25.20181 z"
       id="path4988"
       style="fill:#000000;stroke:#ff0000;stroke-opacity:1;stroke-width:0.37795276;stroke-dasharray:none;fill-opacity:1" /><path
       d="m 477.84703,34.277976 h 15.76822 q 4.83073,0 7.38281,2.050781 3.23568,2.324218 3.32682,7.519528 0,4.329426 -2.77994,7.291664 -2.82552,3.190103 -8.47656,3.281249 h -15.22135 z m -10.07161,57.467426 h 10.07161 V 63.353486 h 12.85156 l 13.71744,28.391916 H 516.4017 L 500.99806,62.259736 q 12.66927,-4.8763 12.85156,-18.411451 -0.27344,-9.205726 -6.60807,-14.173172 -5.24088,-4.374998 -13.53515,-4.374998 h -25.93098 z"
       id="path4990"
       style="fill:#000000;stroke:#ff0000;stroke-opacity:1;stroke-width:0.37795276;stroke-dasharray:none;fill-opacity:1" /><path
       d="m 524.69597,91.745402 h 10.07161 V 44.531879 h 0.18229 l 30.03254,47.213523 h 9.52473 V 25.300115 h -10.07161 v 47.213524 h -0.18229 L 534.17513,25.300115 h -9.47916 z"
       id="path4992"
       style="fill:#000000;stroke:#ff0000;stroke-opacity:1;stroke-width:0.37795276;stroke-dasharray:none;fill-opacity:1" /><path
       d="M 588.54359,91.745402 H 598.6152 V 25.300115 h -10.07161 z"
       id="path4994"
       style="fill:#000000;stroke:#ff0000;stroke-opacity:1;stroke-width:0.37795276;stroke-dasharray:none;fill-opacity:1" /><path
       d="M 612.60609,91.745402 H 622.6777 V 44.531879 h 0.18229 l 30.03254,47.213523 h 9.52474 V 25.300115 h -10.07161 v 47.213524 h -0.18229 L 622.08525,25.300115 h -9.47916 z"
       id="path4996"
       style="fill:#000000;stroke:#ff0000;stroke-opacity:1;stroke-width:0.37795276;stroke-dasharray:none;fill-opacity:1" /><path
       d="m 698.0097,64.6751 h 13.53515 v 3.46354 q -0.0911,6.243488 -3.91927,10.071611 -3.82812,4.010415 -9.70703,4.010415 -3.55468,0 -6.10677,-1.503905 -2.59765,-1.276042 -4.1927,-3.326822 -1.95964,-2.141926 -2.59766,-5.605467 -0.72916,-3.46354 -0.72916,-13.261713 0,-9.798174 0.72916,-13.35286 0.63802,-3.372394 2.59766,-5.514321 1.59505,-2.05078 4.1927,-3.417967 2.55209,-1.321614 6.10677,-1.41276 4.83073,0.09115 8.20312,2.779947 3.23568,2.82552 4.46615,6.835935 h 10.66406 q -1.59505,-8.339841 -7.65625,-13.99088 -6.0612,-5.605467 -15.67708,-5.696613 -7.83854,0.09115 -13.07942,3.736978 -5.33203,3.600259 -7.74739,8.203122 -1.50391,2.415364 -2.23307,6.334633 -0.6836,3.919269 -0.6836,15.494786 0,11.393224 0.6836,15.40364 0.36458,2.141926 0.91145,3.554686 0.59245,1.367187 1.32162,2.871092 2.41536,4.602863 7.74739,8.111976 5.24088,3.645832 13.07942,3.828124 10.16276,-0.182292 16.86198,-6.881508 6.65364,-6.744789 6.83593,-16.725254 V 55.150364 H 698.0097 Z"
       id="path4998"
       style="fill:#000000;stroke:#ff0000;stroke-opacity:1;stroke-width:0.37795276;stroke-dasharray:none;fill-opacity:1" /></g></svg>
